<svg xmlns="http://www.w3.org/2000/svg" xmlns:xlink="http://www.w3.org/1999/xlink" width="1136" zoomAndPan="magnify" viewBox="0 0 852 871.499969" height="1162" preserveAspectRatio="xMidYMid meet" version="1.0"><path fill="#ffd6ff" d="M 223.339844 733.328125 C 188.511719 733.328125 148.847656 721.980469 127.144531 689.308594 C 101.785156 651.3125 112.933594 602.355469 121.816406 576.496094 C 126.945312 561.398438 133.554688 546.691406 139.871094 532.476562 C 148.554688 513.035156 157.433594 492.902344 162.761719 472.175781 C 171.738281 436.839844 166.511719 408.019531 145.394531 375.648438 C 125.664062 345.347656 127.144531 311.296875 131.1875 281.882812 C 141.152344 210.230469 182.199219 146.074219 241.101562 110.445312 C 259.648438 99.195312 307.503906 75.210938 350.125 96.527344 C 370.253906 106.597656 384.265625 124.558594 397.78125 141.929688 C 411.59375 159.597656 424.617188 176.277344 443.363281 185.160156 C 463.691406 194.632812 486.382812 193.054688 510.457031 191.378906 C 520.71875 190.6875 531.277344 189.996094 541.535156 190.09375 C 587.21875 190.984375 632.605469 211.808594 663.09375 245.761719 C 693.578125 279.710938 709.367188 327.1875 705.320312 372.6875 C 704.136719 385.8125 701.375 399.039062 698.808594 411.769531 C 694.074219 434.765625 689.535156 456.480469 693.382812 478.292969 C 697.328125 500.105469 709.5625 519.945312 721.503906 539.089844 C 724.660156 544.222656 727.914062 549.355469 730.972656 554.488281 C 751.101562 588.636719 756.824219 617.0625 748.636719 641.34375 C 736.597656 676.675781 698.414062 692.269531 669.40625 694.835938 C 643.953125 697.105469 618.792969 692.371094 594.324219 687.828125 C 587.417969 686.546875 580.507812 685.261719 573.601562 684.078125 C 501.972656 672.332031 427.382812 677.464844 357.921875 698.882812 C 346.96875 702.238281 336.015625 706.089844 325.066406 709.839844 C 297.734375 719.3125 269.515625 729.183594 240.113281 732.34375 C 234.6875 733.03125 229.0625 733.328125 223.339844 733.328125 Z M 312.535156 97.8125 C 284.613281 97.8125 258.464844 111.332031 246.132812 118.835938 C 189.796875 152.984375 150.527344 214.472656 140.957031 283.265625 C 137.109375 310.800781 135.628906 342.683594 153.585938 370.21875 C 176.082031 404.664062 181.804688 436.839844 172.234375 474.640625 C 166.707031 496.15625 157.628906 516.6875 148.847656 536.523438 C 142.632812 550.539062 136.121094 565.148438 131.089844 579.753906 C 122.800781 603.835938 112.34375 649.4375 135.332031 683.882812 C 158.222656 718.226562 203.90625 726.421875 239.03125 722.667969 C 267.347656 719.609375 295.070312 709.9375 321.808594 700.660156 C 332.859375 696.8125 343.8125 692.960938 354.960938 689.507812 C 425.800781 667.597656 501.972656 662.464844 575.082031 674.40625 C 582.089844 675.589844 589.09375 676.875 596 678.15625 C 619.777344 682.597656 644.347656 687.238281 668.421875 685.066406 C 696.640625 682.597656 729.394531 667.101562 739.261719 638.183594 C 746.5625 616.765625 741.039062 591.007812 722.488281 559.523438 C 719.527344 554.390625 716.371094 549.355469 713.214844 544.320312 C 700.78125 524.386719 687.957031 503.757812 683.714844 480.070312 C 679.472656 456.382812 684.40625 432.695312 689.140625 409.796875 C 691.707031 397.359375 694.371094 384.429688 695.554688 371.898438 C 699.304688 329.0625 684.503906 284.449219 655.792969 252.472656 C 627.078125 220.492188 584.359375 200.953125 541.339844 200.0625 C 531.472656 199.867188 521.113281 200.554688 511.050781 201.246094 C 486.777344 202.925781 461.71875 204.703125 439.023438 194.042969 C 418.105469 184.171875 403.703125 165.816406 389.789062 147.949219 C 376.273438 130.679688 363.644531 114.394531 345.488281 105.3125 C 334.832031 99.882812 323.488281 97.8125 312.535156 97.8125 Z M 312.535156 97.8125 " fill-opacity="1" fill-rule="nonzero"/><path fill="#e7c6ff" d="M 560.183594 438.417969 C 533.742188 438.417969 507.203125 434.078125 481.253906 423.8125 C 459.25 415.125 429.257812 398.347656 411.101562 367.851562 C 394.230469 339.523438 392.75 304.585938 407.253906 278.824219 C 414.457031 266.09375 424.914062 256.023438 435.078125 246.351562 C 441.195312 240.527344 447.507812 234.410156 452.9375 227.996094 C 463.097656 215.757812 464.777344 203.023438 466.550781 189.402344 C 467.734375 180.324219 469.019531 170.847656 472.765625 161.175781 C 482.335938 136.5 507.992188 110.148438 527.824219 96.035156 C 552.785156 78.269531 593.433594 68.398438 623.429688 88.632812 C 637.636719 98.207031 646.910156 112.617188 655.890625 126.632812 C 663.386719 138.277344 670.492188 149.332031 680.261719 157.820312 C 698.117188 173.316406 723.476562 178.546875 747.945312 183.679688 C 778.039062 189.996094 809.019531 196.410156 827.371094 221.777344 C 847.496094 249.707031 840.984375 287.410156 825.496094 312.480469 C 809.019531 339.128906 782.773438 357.585938 756.824219 373.476562 C 703.941406 405.75 632.703125 438.417969 560.183594 438.417969 Z M 533.644531 104.03125 C 514.402344 117.75 490.527344 142.917969 482.042969 164.730469 C 478.6875 173.316406 477.503906 182.199219 476.417969 190.6875 C 474.542969 205.097656 472.570312 219.902344 460.632812 234.3125 C 454.910156 241.21875 448.296875 247.4375 441.984375 253.558594 C 431.917969 263.230469 422.347656 272.308594 415.9375 283.757812 C 403.109375 306.460938 404.589844 337.550781 419.585938 362.914062 C 436.261719 391.042969 464.28125 406.636719 484.902344 414.832031 C 578.242188 451.742188 681.542969 408.21875 751.792969 365.085938 C 776.65625 349.789062 801.816406 332.21875 817.207031 307.347656 C 830.921875 285.140625 836.941406 251.878906 819.476562 227.601562 C 803.394531 205.394531 775.570312 199.570312 746.070312 193.449219 C 720.320312 188.121094 693.777344 182.496094 673.945312 165.421875 C 663.09375 156.042969 655.296875 143.804688 647.699219 132.058594 C 638.917969 118.339844 630.632812 105.410156 618.101562 96.921875 C 591.855469 79.058594 555.941406 88.140625 533.644531 104.03125 Z M 533.644531 104.03125 " fill-opacity="1" fill-rule="nonzero"/><path fill="#e7c6ff" d="M 137.109375 840.910156 C 113.921875 840.910156 90.042969 833.113281 70.015625 818.011719 C 42.390625 797.1875 22.558594 763.925781 14.367188 724.347656 C 3.316406 671.25 31.042969 552.316406 90.636719 502.96875 C 117.671875 480.5625 148.257812 475.628906 179.039062 488.460938 C 214.660156 503.265625 238.339844 535.734375 258.664062 568.601562 L 264.976562 578.867188 C 282.046875 606.796875 299.609375 635.714844 325.757812 654.667969 C 333.453125 660.195312 341.9375 665.03125 350.226562 669.667969 C 360.191406 675.292969 370.550781 681.019531 379.824219 688.421875 C 396.5 701.648438 412.089844 724.347656 405.972656 748.429688 C 398.375 778.136719 362.558594 789.6875 332.269531 787.910156 C 323.882812 787.414062 315.394531 786.328125 307.304688 785.246094 C 287.375 782.578125 268.53125 780.113281 250.671875 785.738281 C 235.871094 790.375 223.636719 799.949219 210.613281 810.117188 C 200.15625 818.308594 189.300781 826.796875 176.871094 832.519531 C 164.4375 838.148438 150.921875 840.910156 137.109375 840.910156 Z M 145.691406 491.320312 C 128.722656 491.320312 112.34375 497.738281 96.851562 510.667969 C 39.824219 557.84375 13.285156 671.644531 23.9375 722.375 C 31.734375 759.679688 50.183594 790.773438 75.9375 810.214844 C 104.546875 831.730469 143.421875 837.160156 172.628906 823.539062 C 183.972656 818.210938 194.433594 810.117188 204.496094 802.320312 C 217.617188 792.054688 231.234375 781.492188 247.710938 776.363281 C 267.640625 770.144531 288.460938 772.90625 308.589844 775.570312 C 316.582031 776.65625 324.867188 777.742188 332.859375 778.238281 C 359.203125 779.71875 390.183594 770.441406 396.398438 746.160156 C 401.332031 726.714844 387.222656 707.175781 373.707031 696.414062 C 365.125 689.605469 355.554688 684.175781 345.488281 678.550781 C 337.003906 673.8125 328.125 668.878906 320.035156 662.957031 C 292.308594 642.824219 274.152344 613.113281 256.691406 584.292969 L 250.375 574.03125 C 230.9375 542.546875 208.441406 511.554688 175.390625 497.835938 C 165.128906 493.394531 155.359375 491.320312 145.691406 491.320312 Z M 145.691406 491.320312 " fill-opacity="1" fill-rule="nonzero"/></svg>